<svg width="111" height="24" viewBox="0 0 111 24" fill="none" xmlns="http://www.w3.org/2000/svg">
<path d="M10.3007 19.6404C11.68 19.9633 13.0006 20.1248 14.2625 20.1248C15.5245 20.1248 16.5222 19.8459 17.2559 19.2881C18.0189 18.7009 18.5765 17.7028 18.9287 16.2936L24.2111 16.4697C23.7709 19.1119 23.184 21.2991 22.4503 23.0312H0.836384C0.278795 19.2734 0 15.3835 0 11.3615C0 7.33945 0.205428 3.88991 0.616283 1.01284H13.2941C11.3572 8.44037 10.3594 14.6495 10.3007 19.6404Z" fill="#219653"/>
<path d="M30.1346 22.8991C27.5227 19.5523 26.2168 16.1174 26.2168 12.5945C26.2168 9.07156 27.6841 6.09174 30.6188 3.65505C33.5535 1.21835 37.3099 0 41.888 0C44.3237 0 46.7449 0.366972 49.1513 1.10092C51.2643 3.77248 52.3207 6.63486 52.3207 9.68807C52.3207 13.5339 50.7507 16.8807 47.6106 19.7284C44.4705 22.5761 40.6701 24 36.2094 24C34.3018 24 32.2769 23.633 30.1346 22.8991ZM36.8256 3.83119C35.7985 5.59266 35.2849 7.66239 35.2849 10.0404C35.2849 12.4183 35.7985 14.6202 36.8256 16.6459C37.8821 18.6422 39.3201 20.0807 41.1396 20.9615C42.5189 19.2 43.2086 17.1596 43.2086 14.8404C43.2086 12.5211 42.6363 10.3633 41.4918 8.36697C40.3766 6.37064 38.8212 4.85871 36.8256 3.83119Z" fill="#219653"/>
<path d="M72.0067 20.8734L72.0507 19.0239C72.0507 16.9394 71.8746 14.4587 71.5225 11.5816H81.0309C81.0309 15.7505 80.8254 19.567 80.4146 23.0312C75.8658 23.6771 71.1557 24 66.2841 24H63.4668C60.7962 22.855 58.7126 21.1817 57.2159 18.9798C55.7192 16.7486 54.9709 14.3853 54.9709 11.8899C54.9709 8.57248 56.3062 5.76881 58.9767 3.4789C61.6766 1.15963 65.6091 0 70.7741 0C73.4741 0 76.4821 0.366972 79.7983 1.10092C79.2994 3.09725 78.7271 4.85872 78.0815 6.38532C76.2914 6.50275 74.3691 6.59082 72.3149 6.64954C72.6377 5.65137 72.8724 4.66789 73.0192 3.69908C72.0801 3.52293 71.1116 3.43486 70.1138 3.43486C69.1454 3.43486 67.9862 3.59633 66.6362 3.91927C66.1667 5.9156 65.9319 7.7211 65.9319 9.33578C65.9319 11.7725 66.4748 14.0624 67.5607 16.2055C68.6759 18.3193 70.1579 19.8752 72.0067 20.8734Z" fill="#219653"/>
<path d="M88.8138 22.8991C86.202 19.5523 84.896 16.1174 84.896 12.5945C84.896 9.07156 86.3634 6.09174 89.298 3.65505C92.2327 1.21835 95.9891 0 100.567 0C103.003 0 105.424 0.366972 107.831 1.10092C109.944 3.77248 111 6.63486 111 9.68807C111 13.5339 109.43 16.8807 106.29 19.7284C103.15 22.5761 99.3493 24 94.8886 24C92.9811 24 90.9561 23.633 88.8138 22.8991ZM95.5049 3.83119C94.4778 5.59266 93.9642 7.66239 93.9642 10.0404C93.9642 12.4183 94.4778 14.6202 95.5049 16.6459C96.5614 18.6422 97.9994 20.0807 99.8189 20.9615C101.198 19.2 101.888 17.1596 101.888 14.8404C101.888 12.5211 101.316 10.3633 100.171 8.36697C99.0559 6.37064 97.5005 4.85871 95.5049 3.83119Z" fill="#219653"/>
</svg>
