<svg width="28" height="28" viewBox="0 0 28 28" fill="none" xmlns="http://www.w3.org/2000/svg">
<path d="M14.0001 0.666656C6.64008 0.666656 0.666748 6.63999 0.666748 14C0.666748 21.36 6.64008 27.3333 14.0001 27.3333C21.3601 27.3333 27.3334 21.36 27.3334 14C27.3334 6.63999 21.3601 0.666656 14.0001 0.666656ZM14.0001 4.66666C16.2134 4.66666 18.0001 6.45332 18.0001 8.66666C18.0001 10.88 16.2134 12.6667 14.0001 12.6667C11.7867 12.6667 10.0001 10.88 10.0001 8.66666C10.0001 6.45332 11.7867 4.66666 14.0001 4.66666ZM14.0001 23.6C10.6667 23.6 7.72008 21.8933 6.00008 19.3067C6.04008 16.6533 11.3334 15.2 14.0001 15.2C16.6534 15.2 21.9601 16.6533 22.0001 19.3067C20.2801 21.8933 17.3334 23.6 14.0001 23.6Z" fill="#828282"/>
</svg>
